<svg width="24" height="24" viewBox="0 0 24 24" fill="none" xmlns="http://www.w3.org/2000/svg">
<path fill-rule="evenodd" clip-rule="evenodd" d="M2.49921 10.5657C2.15496 8.15595 4.02481 6 6.459 6H17.5409C19.9751 6 21.845 8.15595 21.5007 10.5657L20.4805 17.7071C20.1286 20.1704 18.019 22 15.5308 22H8.46916C5.9809 22 3.8713 20.1704 3.51941 17.7071L2.49921 10.5657ZM6.459 8C5.2419 8 4.30698 9.07798 4.4791 10.2828L5.49931 17.4243C5.71044 18.9022 6.9762 20 8.46916 20H15.5308C17.0237 20 18.2895 18.9022 18.5006 17.4243L19.5208 10.2828C19.693 9.07798 18.758 8 17.5409 8H6.459Z" fill="black"/>
<path fill-rule="evenodd" clip-rule="evenodd" d="M9.44716 2.10554C9.94114 2.35253 10.1414 2.9532 9.89438 3.44718L8.10552 7.02489C7.85853 7.51887 7.25786 7.71909 6.76388 7.4721C6.2699 7.22511 6.06968 6.62444 6.31667 6.13046L8.10552 2.55275C8.35251 2.05877 8.95318 1.85855 9.44716 2.10554Z" fill="black"/>
<path fill-rule="evenodd" clip-rule="evenodd" d="M14.5529 2.10552C15.0469 1.85853 15.6475 2.05876 15.8945 2.55273L17.6834 6.13044C17.9304 6.62442 17.7301 7.22509 17.2362 7.47208C16.7422 7.71907 16.1415 7.51885 15.8945 7.02487L14.1057 3.44716C13.8587 2.95318 14.0589 2.35251 14.5529 2.10552Z" fill="black"/>
<path fill-rule="evenodd" clip-rule="evenodd" d="M12 10C12.5523 10 13 10.4477 13 11V13H15C15.5523 13 16 13.4477 16 14C16 14.5523 15.5523 15 15 15H13V17C13 17.5523 12.5523 18 12 18C11.4477 18 11 17.5523 11 17L11 15H9C8.44772 15 8 14.5523 8 14C8 13.4477 8.44772 13 9 13H11V11C11 10.4477 11.4477 10 12 10Z" fill="black"/>
</svg>
