<svg width="24" height="24" viewBox="0 0 24 24" fill="none" xmlns="http://www.w3.org/2000/svg">
<path fill-rule="evenodd" clip-rule="evenodd" d="M7.00013 4.76363C7.84713 3.06962 9.57835 2 11.4721 2H12.5279C14.4217 2 16.1531 3.07003 17 4.76396L17.8944 6.55279C18.1414 7.04677 17.9412 7.64744 17.4472 7.89443C16.9532 8.14142 16.3525 7.94119 16.1055 7.44721L15.2111 5.65838C14.703 4.64202 13.6642 4 12.5279 4H11.4721C10.3357 4 9.29711 4.64179 8.78898 5.65805L7.8944 7.44721C7.64741 7.94119 7.04674 8.14142 6.55276 7.89443C6.05878 7.64744 5.85856 7.04676 6.10555 6.55279L7.00013 4.76363Z" fill="black"/>
<path fill-rule="evenodd" clip-rule="evenodd" d="M2.49921 10.5657C2.15496 8.15595 4.02481 6 6.459 6H17.5409C19.9751 6 21.845 8.15595 21.5007 10.5657L21.2102 12.5992C21.1321 13.1459 20.6256 13.5258 20.0789 13.4477C19.5321 13.3696 19.1522 12.8631 19.2303 12.3163L19.5208 10.2828C19.693 9.07798 18.758 8 17.5409 8H6.459C5.2419 8 4.30698 9.07798 4.4791 10.2828L5.49931 17.4243C5.71044 18.9022 6.9762 20 8.46916 20H9.99994C10.5522 20 10.9999 20.4477 10.9999 21C10.9999 21.5523 10.5522 22 9.99994 22H8.46916C5.9809 22 3.8713 20.1704 3.51941 17.7071L2.49921 10.5657Z" fill="black"/>
<path fill-rule="evenodd" clip-rule="evenodd" d="M16 16C14.8954 16 14 16.8954 14 18C14 19.1046 14.8954 20 16 20C17.1046 20 18 19.1046 18 18C18 16.8954 17.1046 16 16 16ZM12 18C12 15.7909 13.7909 14 16 14C18.2091 14 20 15.7909 20 18C20 20.2091 18.2091 22 16 22C13.7909 22 12 20.2091 12 18Z" fill="black"/>
</svg>
