<svg width="24" height="25" viewBox="0 0 24 25" fill="none" xmlns="http://www.w3.org/2000/svg">
<path fill-rule="evenodd" clip-rule="evenodd" d="M8 2C6.89543 2 6 2.89543 6 4V16C6 17.1046 6.89543 18 8 18H16C17.1046 18 18 17.1046 18 16V6.82843C18 6.56321 17.8946 6.30886 17.7071 6.12132L13.8787 2.29289C13.6911 2.10536 13.4368 2 13.1716 2H8ZM4 4C4 1.79086 5.79086 0 8 0H13.1716C13.9672 0 14.7303 0.31607 15.2929 0.87868L19.1213 4.70711C19.6839 5.26972 20 6.03278 20 6.82843V16C20 18.2091 18.2091 20 16 20H8C5.79086 20 4 18.2091 4 16V4Z" fill="black"/>
<path fill-rule="evenodd" clip-rule="evenodd" d="M8.79289 12.2929C9.18342 11.9024 9.81658 11.9024 10.2071 12.2929L12 14.0858L13.7929 12.2929C14.1834 11.9024 14.8166 11.9024 15.2071 12.2929C15.5976 12.6834 15.5976 13.3166 15.2071 13.7071L13.4142 15.5L15.2071 17.2929C15.5976 17.6834 15.5976 18.3166 15.2071 18.7071C14.8166 19.0976 14.1834 19.0976 13.7929 18.7071L12 16.9142L10.2071 18.7071C9.81658 19.0976 9.18342 19.0976 8.79289 18.7071C8.40237 18.3166 8.40237 17.6834 8.79289 17.2929L10.5858 15.5L8.79289 13.7071C8.40237 13.3166 8.40237 12.6834 8.79289 12.2929Z" fill="black"/>
<path fill-rule="evenodd" clip-rule="evenodd" d="M14 4V6C14 7.65685 15.3431 9 17 9H19V11H17C14.2386 11 12 8.76142 12 6V4H14Z" fill="black"/>
</svg>
