<svg width="20" height="20" viewBox="0 0 20 20" fill="none" xmlns="http://www.w3.org/2000/svg">
<path fill-rule="evenodd" clip-rule="evenodd" d="M7.1274 2.5C6.61336 2.5 6.03205 2.55418 5.47678 2.74343C2.12916 3.83646 1.05289 7.41157 1.99901 10.3582L2.00299 10.3706L2.00735 10.3828C2.52866 11.8478 3.36859 13.1771 4.46117 14.2706L4.46747 14.2769L4.47389 14.2831C6.03156 15.7768 7.72716 17.0793 9.56307 18.2095L9.99455 18.4751L10.4289 18.2143C12.2689 17.1095 13.9971 15.7711 15.536 14.2894L15.5409 14.2848L15.5456 14.2801C16.6476 13.1845 17.4876 11.8453 18.0013 10.379L18.0056 10.3667L18.0095 10.3543C18.9377 7.41409 17.8668 3.8347 14.5423 2.7578C13.998 2.57674 13.4364 2.5 12.8873 2.5C11.6524 2.49999 10.7382 3.0171 10.0004 3.54414C9.26829 3.02111 8.34801 2.5 7.1274 2.5Z" fill="#FFC400"/>
</svg>
