<svg width="24" height="24" viewBox="0 0 24 24" fill="none" xmlns="http://www.w3.org/2000/svg">
<path fill-rule="evenodd" clip-rule="evenodd" d="M6.57209 3.29224C7.23841 3.06514 7.93598 3.00012 8.55284 3.00012C10.0176 3.00012 11.1219 3.62545 12.0004 4.25309C12.8858 3.62064 13.9828 3.00011 15.4648 3.00012C16.1236 3.00012 16.7976 3.09221 17.4507 3.30948C21.4401 4.60176 22.7251 8.89703 21.6113 12.4253L21.6066 12.4402L21.6015 12.4549C20.9851 14.2144 19.9771 15.8215 18.6547 17.1362L18.649 17.1419L18.6432 17.1474C16.7964 18.9254 14.7226 20.5315 12.5147 21.8573L11.9934 22.1703L11.4756 21.8515C9.27254 20.4953 7.23782 18.9323 5.36862 17.1398L5.36091 17.1324L5.35336 17.1249C4.04226 15.8127 3.03435 14.2174 2.40877 12.4595L2.40354 12.4448L2.39877 12.43C1.26341 8.894 2.55494 4.60387 6.57209 3.29224ZM8.55284 5.00012C8.05951 5.00012 7.59896 5.05447 7.21304 5.18676L7.20561 5.18931L7.19814 5.19174C4.50999 6.06632 3.40893 9.01165 4.29832 11.8039C4.82392 13.2739 5.66716 14.6071 6.76073 15.7038C8.37525 17.2511 10.1218 18.6184 12.0055 19.823C13.883 18.6437 15.655 17.2473 17.2502 15.7123C18.3495 14.6177 19.1915 13.2778 19.7087 11.8086C20.5858 9.00783 19.4774 6.06643 16.8312 5.21113L16.8223 5.20824L16.8223 5.2082C16.3986 5.06687 15.9402 5.00012 15.4648 5.00012C14.3739 5.00011 13.6199 5.5251 12.6048 6.29624L11.9989 6.75657L11.3937 6.29529C10.3948 5.53393 9.62417 5.00012 8.55284 5.00012Z" fill="black"/>
</svg>
