<svg width="24" height="24" viewBox="0 0 24 24" fill="none" xmlns="http://www.w3.org/2000/svg">
<path fill-rule="evenodd" clip-rule="evenodd" d="M2 7C2 4.23858 4.23858 2 7 2H17C19.7614 2 22 4.23858 22 7V17C22 19.7614 19.7614 22 17 22H7C4.23858 22 2 19.7614 2 17V7ZM7 4C5.34315 4 4 5.34315 4 7V17C4 18.6569 5.34315 20 7 20H17C18.6569 20 20 18.6569 20 17V7C20 5.34315 18.6569 4 17 4H7Z" fill="black"/>
<path fill-rule="evenodd" clip-rule="evenodd" d="M9 8C8.44772 8 8 8.44772 8 9C8 9.55228 8.44772 10 9 10C9.55228 10 10 9.55228 10 9C10 8.44772 9.55228 8 9 8ZM6 9C6 7.34315 7.34315 6 9 6C10.6569 6 12 7.34315 12 9C12 10.6569 10.6569 12 9 12C7.34315 12 6 10.6569 6 9Z" fill="black"/>
<path fill-rule="evenodd" clip-rule="evenodd" d="M15.9274 14.0744C15.4971 13.7158 14.8562 13.7806 14.5063 14.2179L12.9072 16.2169C11.946 17.4184 10.2257 17.6855 8.94541 16.832C8.52834 16.554 7.96792 16.641 7.65479 17.0324L4.78098 20.6246L3.21924 19.3753L6.09305 15.783C7.05425 14.5815 8.77456 14.3144 10.0548 15.1679C10.4719 15.4459 11.0323 15.3589 11.3454 14.9675L12.9446 12.9685C13.9943 11.6564 15.9169 11.4622 17.2078 12.538L21.6403 16.2317L20.3599 17.7682L15.9274 14.0744Z" fill="black"/>
</svg>
