<svg width="24" height="24" viewBox="0 0 24 24" fill="none" xmlns="http://www.w3.org/2000/svg">
<path fill-rule="evenodd" clip-rule="evenodd" d="M12 2C12.5523 2 13 2.44772 13 3L13 6C13 6.55228 12.5523 7 12 7C11.4477 7 11 6.55228 11 6L11 3C11 2.44772 11.4477 2 12 2Z" fill="black"/>
<path fill-rule="evenodd" clip-rule="evenodd" d="M17 12C17 11.4477 17.4477 11 18 11H21C21.5523 11 22 11.4477 22 12C22 12.5523 21.5523 13 21 13H18C17.4477 13 17 12.5523 17 12Z" fill="black"/>
<path fill-rule="evenodd" clip-rule="evenodd" d="M12 22C11.4477 22 11 21.5523 11 21L11 18C11 17.4477 11.4477 17 12 17C12.5523 17 13 17.4477 13 18L13 21C13 21.5523 12.5523 22 12 22Z" fill="black"/>
<path fill-rule="evenodd" clip-rule="evenodd" d="M2 12C2 11.4477 2.44772 11 3 11L6 11C6.55228 11 7 11.4477 7 12C7 12.5523 6.55228 13 6 13L3 13C2.44772 13 2 12.5523 2 12Z" fill="black"/>
<path fill-rule="evenodd" clip-rule="evenodd" d="M4.92879 4.92888C5.31931 4.53836 5.95248 4.53836 6.343 4.92888L8.46432 7.0502C8.85484 7.44072 8.85484 8.07389 8.46432 8.46441C8.0738 8.85494 7.44063 8.85494 7.05011 8.46441L4.92879 6.34309C4.53826 5.95257 4.53826 5.3194 4.92879 4.92888Z" fill="black"/>
<path fill-rule="evenodd" clip-rule="evenodd" d="M19.0709 4.92888C19.4614 5.3194 19.4614 5.95257 19.0709 6.34309L16.9495 8.46441C16.559 8.85494 15.9258 8.85494 15.5353 8.46441C15.1448 8.07389 15.1448 7.44072 15.5353 7.0502L17.6566 4.92888C18.0472 4.53836 18.6803 4.53836 19.0709 4.92888Z" fill="black"/>
<path fill-rule="evenodd" clip-rule="evenodd" d="M19.0712 19.071C18.6807 19.4615 18.0475 19.4615 17.657 19.071L15.5357 16.9497C15.1452 16.5592 15.1452 15.926 15.5357 15.5355C15.9262 15.1449 16.5594 15.1449 16.9499 15.5355L19.0712 17.6568C19.4617 18.0473 19.4617 18.6805 19.0712 19.071Z" fill="black"/>
<path fill-rule="evenodd" clip-rule="evenodd" d="M4.92912 19.0711C4.5386 18.6806 4.5386 18.0474 4.92912 17.6569L7.05044 15.5356C7.44097 15.145 8.07413 15.145 8.46466 15.5356C8.85518 15.9261 8.85518 16.5592 8.46466 16.9498L6.34334 19.0711C5.95281 19.4616 5.31965 19.4616 4.92912 19.0711Z" fill="black"/>
</svg>
