<svg width="84" height="24" viewBox="0 0 84 24" fill="none" xmlns="http://www.w3.org/2000/svg">
<path d="M16.3116 11.7861V12.9993H17.4154V17.613H16.3116V18.7812H15.1404V19.9494H13.8551V20.9459H2.68493V19.8199H1.51375V2.60381H2.68493V1.47784H13.858V2.47432H15.0731V3.62281H16.2003V4.81352H17.2368V9.42719H16.2003V10.6404H15.0526V11.7889H16.3145L16.3116 11.7861ZM6.58203 5.70023V9.10066H11.0413V8.19144H11.987V6.63197H11.0413V5.70023H6.58203ZM6.58203 13.2808V16.7038H11.1994V15.7946H12.1451V14.2126H11.1994V13.2808H6.58203Z" fill="black"/>
<path d="M31.2236 14.3223H32.4182V15.4905H33.6333V16.639H34.7811V19.91H33.6333V20.929H30.1871V19.91H29.016V18.7615H27.8887V17.5708H26.8522V16.3575H25.8391V15.1668H24.624V19.9522H23.5436V20.9487H20.4137V19.9522H19.3332V2.51936H20.4137V1.48065H31.3613V2.51936H32.5764V3.62281H33.7241V4.90079H34.6259V10.9444H33.5894V12.1577H32.4417V13.3259H31.2266V14.3223H31.2236ZM28.1844 10.8769V9.81565H29.2883V6.89094H28.1844V5.82971H24.6035V10.8769H28.1844Z" fill="black"/>
<path d="M46.7915 16.3575V17.3765H47.828V19.955H46.7915V20.9515H37.1059V19.955H36.046V17.3765H37.1059V16.3575H39.2696V6.02676H37.1059V5.03027H36.046V2.4518H37.1059V1.45532H46.7915V2.4518H47.828V5.03027H46.7915V6.02676H44.6278V16.3575H46.7915Z" fill="black"/>
<path d="M61.9056 9.08095V10.1197H63.1002V12.6306H61.9056V13.6918H54.5857V19.8846H53.4819V20.9459H50.3285V19.8846H49.2481V2.51936H50.4193V1.48065H62.4707V2.51936H63.6419V4.96553H62.4707V6.02676H54.5857V9.08095H61.9056Z" fill="#FFBE00"/>
<path d="M80.8289 5.00775V17.416H79.5436V18.7362H78.305V19.8846H77.1573V20.9459H68.596V19.8846H67.4482V18.7362H66.2097V17.416H64.9243V5.00775H66.2097V3.68755H67.4482V2.51936H68.596V1.48065H77.1573V2.51936H78.305V3.68755H79.5436V5.00775H80.8289ZM70.1273 7.13021V15.2935H71.2985V16.4617H74.4519V15.2935H75.623V7.13021H74.4519V5.9395H71.2985V7.13021H70.1273Z" fill="#FFBE00"/>
<path d="M17.029 0.0253344V1.02183H18.2439V2.17034H19.3714V3.36091H20.4079V11.5467H20.5894V20.6645H19.4854V21.8325H18.3143V23.0008H17.029V23.9973H1.17118V22.8713H0V1.15131H1.17118V0.0253344H17.029ZM4.68472 18.3674H5.06815V5.65519H4.68472V18.3674ZM15.316 16.1606H15.9047V16.0506H15.316V16.1606ZM15.1579 7.97475H15.7231V7.8648H15.1579V7.97475Z" fill="#231F20"/>
<path d="M34.5352 0.0253344V1.06416H35.7504V2.16759H36.8981V3.44558H37.7999V13.993H36.7634V14.0351H36.8072V15.1836H37.9549V22.9585H36.8072V23.9775H28.6764V22.9585H27.798V23.0008H26.7175V23.9973H18.903V23.0008H17.8224V1.06416H18.903V0.0253344H34.5352ZM22.5071 18.4969H23.1133V13.9282H23.0899V5.56805H22.5071V18.4969ZM30.026 16.1155H30.9075V15.119H30.026V16.1155ZM29.013 14.9021H29.7158V13.9282H29.013V14.9021ZM32.4593 9.48915H33.1152V7.94946H32.4593V9.48915Z" fill="#231F20"/>
<path d="M49.9626 0V0.996495H50.9991V8.07889H49.9626V9.07539H47.7986V14.9023H49.9626V15.9211H50.9991V23.0035H49.9626V24H35.5922V23.0035H34.5322V15.9211H35.5922V14.9023H37.7558V9.07539H35.5922V8.07889H34.5322V0.996495H35.5922V0H49.9626ZM40.2769 4.57151H42.4405V19.4062H40.2769V19.4961H45.2779V19.4062H43.1139V4.57151H45.2779V4.50388H40.2769V4.57151Z" fill="#231F20"/>
<path d="M65.6417 0.0253344V1.06416H66.8129V8.01406H65.6417V8.66447H66.2711V15.6792H65.0767V16.7403H57.7568V22.9332H56.6529V23.9945H48.8149V22.9332H47.7343V1.06416H48.9055V0.0253344H65.6417ZM52.4191 18.4293H53.0721V12.2365H60.392V12.1295H53.0721V5.56805H52.4191V18.4293ZM53.5902 4.57155H60.957V4.52922H53.5902V4.57155Z" fill="#231F20"/>
<path d="M80.3283 0.0281494V1.06698H81.4761V2.23501H82.7144V3.55533H84V20.4674H82.7144V21.7875H81.4761V22.936H80.3283V23.9974H67.0822V22.936H65.9345V21.7875H64.6958V20.4674H63.4106V3.55533H64.6958V2.23501H65.9345V1.06698H67.0822V0.0281494H80.3283ZM78.794 15.9635H79.3153V8.05921H78.794V15.9635ZM68.0953 15.9635H68.6134V8.05921H68.0953V15.9635ZM73.2981 13.8411H74.1093V10.1817H73.2981V13.8411Z" fill="#231F20"/>
<path d="M16.3116 11.7861V12.9993H17.4154V17.613H16.3116V18.7812H15.1404V19.9494H13.8551V20.9459H2.68493V19.8199H1.51375V2.60381H2.68493V1.47784H13.858V2.47432H15.0731V3.62281H16.2003V4.81352H17.2368V9.42719H16.2003V10.6404H15.0526V11.7889H16.3145L16.3116 11.7861ZM6.58203 5.70023V9.10066H11.0413V8.19144H11.987V6.63197H11.0413V5.70023H6.58203ZM6.58203 13.2808V16.7038H11.1994V15.7946H12.1451V14.2126H11.1994V13.2808H6.58203Z" fill="white"/>
<path d="M31.2236 14.3223H32.4182V15.4905H33.6333V16.639H34.7811V19.91H33.6333V20.929H30.1871V19.91H29.016V18.7615H27.8887V17.5708H26.8522V16.3575H25.8391V15.1668H24.624V19.9522H23.5436V20.9487H20.4137V19.9522H19.3332V2.51936H20.4137V1.48065H31.3613V2.51936H32.5764V3.62281H33.7241V4.90079H34.6259V10.9444H33.5894V12.1577H32.4417V13.3259H31.2266V14.3223H31.2236ZM28.1844 10.8769V9.81565H29.2883V6.89094H28.1844V5.82971H24.6035V10.8769H28.1844Z" fill="white"/>
<path d="M46.7915 16.3575V17.3765H47.828V19.955H46.7915V20.9515H37.1059V19.955H36.046V17.3765H37.1059V16.3575H39.2696V6.02676H37.1059V5.03027H36.046V2.4518H37.1059V1.45532H46.7915V2.4518H47.828V5.03027H46.7915V6.02676H44.6278V16.3575H46.7915Z" fill="white"/>
<path d="M61.9056 9.08095V10.1197H63.1002V12.6306H61.9056V13.6918H54.5857V19.8846H53.4819V20.9459H50.3285V19.8846H49.2481V2.51936H50.4193V1.48065H62.4707V2.51936H63.6419V4.96553H62.4707V6.02676H54.5857V9.08095H61.9056Z" fill="#FFBE00"/>
<path d="M80.8289 5.00775V17.416H79.5436V18.7362H78.305V19.8846H77.1573V20.9459H68.596V19.8846H67.4482V18.7362H66.2097V17.416H64.9243V5.00775H66.2097V3.68755H67.4482V2.51936H68.596V1.48065H77.1573V2.51936H78.305V3.68755H79.5436V5.00775H80.8289ZM70.1273 7.13021V15.2935H71.2985V16.4617H74.4519V15.2935H75.623V7.13021H74.4519V5.9395H71.2985V7.13021H70.1273Z" fill="#FFBE00"/>
</svg>
