<svg width="200" height="58" viewBox="0 0 200 58" fill="none" xmlns="http://www.w3.org/2000/svg">
<path d="M38.8371 28.4831V31.4151H41.4653V42.5647H38.8371V45.3879H36.0486V48.211H32.9882V50.6192H6.39269V47.8981H3.60416V6.29253H6.39269V3.57144H32.9952V5.97961H35.8883V8.75513H38.5722V11.6327H41.0401V22.7824H38.5722V25.7144H35.8395V28.4899H38.8441L38.8371 28.4831ZM15.6715 13.7755V21.9933H26.2888V19.796H28.5405V16.0273H26.2888V13.7755H15.6715ZM15.6715 32.0953V40.3675H26.6652V38.1702H28.917V34.347H26.6652V32.0953H15.6715Z" fill="black"/>
<path d="M74.342 34.6123H77.1863V37.4355H80.0794V40.211H82.8121V48.1158H80.0794V50.5784H71.8742V48.1158H69.0856V45.3403H66.4017V42.4627H63.9338V39.5307H61.5218V36.6532H58.6287V48.2178H56.0563V50.626H48.6039V48.2178H46.0315V6.08845H48.6039V3.57824H74.6696V6.08845H77.5627V8.75513H80.2955V11.8436H82.4427V26.449H79.9748V29.381H77.2421V32.2042H74.349V34.6123H74.342ZM67.1058 26.2858V23.7212H69.734V16.6531H67.1058V14.0885H58.5799V26.2858H67.1058Z" fill="black"/>
<path d="M111.408 39.5307V41.9933H113.876V48.2246H111.408V50.6328H88.3474V48.2246H85.8237V41.9933H88.3474V39.5307H93.4991V14.5647H88.3474V12.1565H85.8237V5.92519H88.3474V3.51702H111.408V5.92519H113.876V12.1565H111.408V14.5647H106.257V39.5307H111.408Z" fill="black"/>
<path d="M147.394 21.9456V24.4558H150.239V30.5239H147.394V33.0885H129.966V48.0546H127.338V50.6192H119.83V48.0546H117.257V6.08845H120.046V3.57824H148.74V6.08845H151.528V12H148.74V14.5647H129.966V21.9456H147.394Z" fill="#FFBE00"/>
<path d="M192.45 12.1021V42.0886H189.389V45.279H186.441V48.0546H183.708V50.6192H163.324V48.0546H160.591V45.279H157.642V42.0886H154.582V12.1021H157.642V8.91159H160.591V6.08845H163.324V3.57824H183.708V6.08845H186.441V8.91159H189.389V12.1021H192.45ZM166.97 17.2313V36.9593H169.758V39.7824H177.266V36.9593H180.055V17.2313H177.266V14.3538H169.758V17.2313H166.97Z" fill="#FFBE00"/>
<path d="M40.5452 0.0612248V2.46942H43.4379V5.24499H46.1223V8.12221H48.5901V27.9046H49.0224V49.9391H46.3939V52.7619H43.6054V55.5853H40.5452V57.9935H2.78852V55.2724H0V2.78232H2.78852V0.0612248H40.5452ZM11.1541 44.388H12.067V13.6667H11.1541V44.388ZM36.4666 39.0547H37.8683V38.789H36.4666V39.0547ZM36.0901 19.2723H37.436V19.0066H36.0901V19.2723Z" fill="#231F20"/>
<path d="M82.2266 0.0612248V2.57173H85.12V5.23835H87.8527V8.32682H89.9999V33.8165H87.532V33.9181H87.6362V36.6937H90.3689V55.483H87.6362V57.9456H68.2772V55.483H66.1858V55.5853H63.6131V57.9935H45.007V55.5853H42.4343V2.57173H45.007V0.0612248H82.2266ZM53.5884 44.7009H55.0317V33.6597H54.9759V13.4561H53.5884V44.7009ZM71.4905 38.9458H73.5894V36.5376H71.4905V38.9458ZM69.0785 36.0134H70.7519V33.6597H69.0785V36.0134ZM77.284 22.9321H78.8458V19.2112H77.284V22.9321Z" fill="#231F20"/>
<path d="M118.958 0V2.4082H121.426V19.524H118.958V21.9322H113.806V36.014H118.958V38.476H121.426V55.5918H118.958V58H84.7433V55.5918H82.2196V38.476H84.7433V36.014H89.8948V21.9322H84.7433V19.524H82.2196V2.4082H84.7433V0H118.958ZM95.8974 11.0478H101.049V46.8984H95.8974V47.1156H107.804V46.8984H102.652V11.0478H107.804V10.8844H95.8974V11.0478Z" fill="#231F20"/>
<path d="M156.29 0.0612248V2.57173H159.078V19.3673H156.29V20.9391H157.788V37.8915H154.945V40.4558H137.516V55.4218H134.888V57.9868H116.226V55.4218H113.653V2.57173H116.442V0.0612248H156.29ZM124.807 44.5375H126.362V29.5714H143.79V29.313H126.362V13.4561H124.807V44.5375ZM127.596 11.0479H145.136V10.9456H127.596V11.0479Z" fill="#231F20"/>
<path d="M191.258 0.0680277V2.57853H193.991V5.40127H196.939V8.59205H200V49.463H196.939V52.6531H193.991V55.4286H191.258V57.9936H159.72V55.4286H156.987V52.6531H154.038V49.463H150.978V8.59205H154.038V5.40127H156.987V2.57853H159.72V0.0680277H191.258ZM187.605 38.5786H188.846V19.4764H187.605V38.5786ZM162.132 38.5786H163.365V19.4764H162.132V38.5786ZM174.519 33.4493H176.451V24.6057H174.519V33.4493Z" fill="#231F20"/>
<path d="M38.8371 28.4831V31.4151H41.4653V42.5647H38.8371V45.3879H36.0486V48.211H32.9882V50.6192H6.39269V47.8981H3.60416V6.29253H6.39269V3.57144H32.9952V5.97961H35.8883V8.75513H38.5722V11.6327H41.0401V22.7824H38.5722V25.7144H35.8395V28.4899H38.8441L38.8371 28.4831ZM15.6715 13.7755V21.9933H26.2888V19.796H28.5405V16.0273H26.2888V13.7755H15.6715ZM15.6715 32.0953V40.3675H26.6652V38.1702H28.917V34.347H26.6652V32.0953H15.6715Z" fill="white"/>
<path d="M74.342 34.6123H77.1863V37.4355H80.0794V40.211H82.8121V48.1158H80.0794V50.5784H71.8742V48.1158H69.0856V45.3403H66.4017V42.4627H63.9338V39.5307H61.5218V36.6532H58.6287V48.2178H56.0563V50.626H48.6039V48.2178H46.0315V6.08845H48.6039V3.57824H74.6696V6.08845H77.5627V8.75513H80.2955V11.8436H82.4427V26.449H79.9748V29.381H77.2421V32.2042H74.349V34.6123H74.342ZM67.1058 26.2858V23.7212H69.734V16.6531H67.1058V14.0885H58.5799V26.2858H67.1058Z" fill="white"/>
<path d="M111.408 39.5307V41.9933H113.876V48.2246H111.408V50.6328H88.3474V48.2246H85.8237V41.9933H88.3474V39.5307H93.4991V14.5647H88.3474V12.1565H85.8237V5.92519H88.3474V3.51702H111.408V5.92519H113.876V12.1565H111.408V14.5647H106.257V39.5307H111.408Z" fill="white"/>
<path d="M147.394 21.9456V24.4558H150.239V30.5239H147.394V33.0885H129.966V48.0546H127.338V50.6192H119.83V48.0546H117.257V6.08845H120.046V3.57824H148.74V6.08845H151.528V12H148.74V14.5647H129.966V21.9456H147.394Z" fill="#FFBE00"/>
<path d="M192.45 12.1021V42.0886H189.389V45.279H186.441V48.0546H183.708V50.6192H163.324V48.0546H160.591V45.279H157.642V42.0886H154.582V12.1021H157.642V8.91159H160.591V6.08845H163.324V3.57824H183.708V6.08845H186.441V8.91159H189.389V12.1021H192.45ZM166.97 17.2313V36.9593H169.758V39.7824H177.266V36.9593H180.055V17.2313H177.266V14.3538H169.758V17.2313H166.97Z" fill="#FFBE00"/>
</svg>
