<svg width="24" height="24" viewBox="0 0 24 24" fill="none" xmlns="http://www.w3.org/2000/svg">
<path fill-rule="evenodd" clip-rule="evenodd" d="M10.7071 12.2929C11.0977 12.6834 11.0977 13.3166 10.7071 13.7071L6.41421 18H9.1429C9.69519 18 10.1429 18.4478 10.1429 19C10.1429 19.5523 9.69519 20 9.1429 20H4C3.44772 20 3 19.5523 3 19V13.8571C3 13.3049 3.44772 12.8571 4 12.8571C4.55228 12.8571 5 13.3049 5 13.8571V16.5858L9.29292 12.2929C9.68345 11.9024 10.3166 11.9024 10.7071 12.2929Z" fill="black"/>
<path fill-rule="evenodd" clip-rule="evenodd" d="M14 2C14 1.44772 14.4477 1 15 1H20C20.5522 1 21 1.44772 21 2V7C21 7.55228 20.5522 8 20 8C19.4477 8 19 7.55228 19 7V4.41423L14.7071 8.70711C14.3166 9.09764 13.6834 9.09764 13.2929 8.70712C12.9024 8.31659 12.9024 7.68343 13.2929 7.2929L17.5858 3H15C14.4477 3 14 2.55228 14 2Z" fill="black"/>
</svg>
