<svg width="24" height="24" viewBox="0 0 24 24" fill="none" xmlns="http://www.w3.org/2000/svg">
<path fill-rule="evenodd" clip-rule="evenodd" d="M2 7C2 4.23858 4.23858 2 7 2H17C19.7614 2 22 4.23858 22 7V17C22 19.7614 19.7614 22 17 22H7C4.23858 22 2 19.7614 2 17V7ZM7 4C5.34315 4 4 5.34315 4 7V17C4 18.6569 5.34315 20 7 20H17C18.6569 20 20 18.6569 20 17V7C20 5.34315 18.6569 4 17 4H7Z" fill="black"/>
<path fill-rule="evenodd" clip-rule="evenodd" d="M10.6999 7.99995C10.6999 8.71792 11.282 9.29995 11.9999 9.29995C12.7179 9.29995 13.2999 8.71792 13.2999 7.99995C13.2999 7.28198 12.7179 6.69995 11.9999 6.69995C11.282 6.69995 10.6999 7.28198 10.6999 7.99995Z" fill="black"/>
<path fill-rule="evenodd" clip-rule="evenodd" d="M10.6999 16C10.6999 16.7179 11.282 17.3 11.9999 17.3C12.7179 17.3 13.2999 16.7179 13.2999 16C13.2999 15.282 12.7179 14.7 11.9999 14.7C11.282 14.7 10.6999 15.282 10.6999 16Z" fill="black"/>
<path fill-rule="evenodd" clip-rule="evenodd" d="M10.6999 12C10.6999 12.7179 11.282 13.3 11.9999 13.3C12.7179 13.3 13.2999 12.7179 13.2999 12C13.2999 11.282 12.7179 10.7 11.9999 10.7C11.282 10.7 10.6999 11.282 10.6999 12Z" fill="black"/>
</svg>
