<svg width="24" height="24" viewBox="0 0 24 24" fill="none" xmlns="http://www.w3.org/2000/svg">
<path fill-rule="evenodd" clip-rule="evenodd" d="M2 12C2 6.47715 6.47715 2 12 2C17.5228 2 22 6.47715 22 12C22 17.5228 17.5228 22 12 22C6.47715 22 2 17.5228 2 12ZM12 4C7.58172 4 4 7.58172 4 12C4 16.4183 7.58172 20 12 20C16.4183 20 20 16.4183 20 12C20 7.58172 16.4183 4 12 4Z" fill="black"/>
<path fill-rule="evenodd" clip-rule="evenodd" d="M10.6999 7.99995C10.6999 8.71792 11.282 9.29995 11.9999 9.29995C12.7179 9.29995 13.2999 8.71792 13.2999 7.99995C13.2999 7.28198 12.7179 6.69995 11.9999 6.69995C11.282 6.69995 10.6999 7.28198 10.6999 7.99995Z" fill="black"/>
<path fill-rule="evenodd" clip-rule="evenodd" d="M10.6999 16C10.6999 16.7179 11.282 17.3 11.9999 17.3C12.7179 17.3 13.2999 16.7179 13.2999 16C13.2999 15.282 12.7179 14.7 11.9999 14.7C11.282 14.7 10.6999 15.282 10.6999 16Z" fill="black"/>
<path fill-rule="evenodd" clip-rule="evenodd" d="M10.6999 12C10.6999 12.7179 11.282 13.3 11.9999 13.3C12.7179 13.3 13.2999 12.7179 13.2999 12C13.2999 11.282 12.7179 10.7 11.9999 10.7C11.282 10.7 10.6999 11.282 10.6999 12Z" fill="black"/>
</svg>
