<svg width="24" height="24" viewBox="0 0 24 24" fill="none" xmlns="http://www.w3.org/2000/svg">
<path fill-rule="evenodd" clip-rule="evenodd" d="M18.462 2.92552C20.2228 2.13619 22.0266 3.94001 21.2373 5.7008L14.7427 20.1888C13.7865 22.3218 10.792 22.4133 9.70731 20.3426L8.1186 17.3096C7.83535 16.7689 7.39388 16.3274 6.85313 16.0442L3.82015 14.4555C1.74946 13.3708 1.84096 10.3763 3.97402 9.42012L18.462 2.92552ZM19.3383 4.73935C19.3316 4.73795 19.3156 4.73463 19.2801 4.75053L4.79213 11.2451C4.18268 11.5183 4.15654 12.3739 4.74817 12.6838L7.78114 14.2725C8.68239 14.7446 9.41818 15.4804 9.89027 16.3816L11.479 19.4146C11.7889 20.0062 12.6444 19.9801 12.9176 19.3707L19.4122 4.88269C19.4281 4.84722 19.4248 4.83114 19.4234 4.82449C19.4207 4.81172 19.4119 4.79124 19.3917 4.77107C19.3715 4.75091 19.3511 4.74206 19.3383 4.73935Z" fill="black"/>
</svg>
