<svg width="24" height="24" viewBox="0 0 24 24" fill="none" xmlns="http://www.w3.org/2000/svg">
<path fill-rule="evenodd" clip-rule="evenodd" d="M10.0376 3.34228C10.7245 1.53906 13.2755 1.53907 13.9624 3.34228L19.6146 18.1792C20.4467 20.3636 18.394 22.5458 16.1628 21.8485L12.8948 20.8273C12.3121 20.6452 11.6878 20.6452 11.1052 20.8273L7.83713 21.8485C5.60597 22.5458 3.55323 20.3636 4.3854 18.1792L10.0376 3.34228ZM11.9398 4.00521C11.9341 4.00891 11.9204 4.01794 11.9065 4.05427L6.25437 18.8912C6.01661 19.5153 6.60311 20.1388 7.24058 19.9396L10.5086 18.9183C11.4797 18.6148 12.5203 18.6148 13.4914 18.9183L16.7594 19.9396C17.3969 20.1388 17.9833 19.5153 17.7456 18.8912L12.0934 4.05427C12.0796 4.01794 12.0659 4.00891 12.0602 4.00521C12.0492 3.99809 12.0285 3.98987 12 3.98987C11.9715 3.98987 11.9507 3.99809 11.9398 4.00521Z" fill="black"/>
</svg>
