<svg width="24" height="24" viewBox="0 0 24 24" fill="none" xmlns="http://www.w3.org/2000/svg">
<path fill-rule="evenodd" clip-rule="evenodd" d="M13.1717 3.41425C14.7338 1.85215 17.2664 1.85215 18.8285 3.41425C20.3906 4.97635 20.3906 7.50901 18.8285 9.0711L9.98969 17.9099C9.01338 18.8862 7.43047 18.8862 6.45416 17.9099C5.47785 16.9336 5.47785 15.3507 6.45416 14.3744L15.293 5.53557C15.6835 5.14504 16.3167 5.14504 16.7072 5.53557C17.0977 5.92609 17.0977 6.55926 16.7072 6.94978L7.86837 15.7886C7.67311 15.9839 7.67311 16.3005 7.86837 16.4957C8.06363 16.691 8.38022 16.691 8.57548 16.4957L17.4143 7.65689C18.1954 6.87584 18.1954 5.60951 17.4143 4.82846C16.6333 4.04741 15.3669 4.04741 14.5859 4.82846L5.74705 13.6673C4.38021 15.0341 4.38022 17.2502 5.74705 18.617C7.11388 19.9839 9.32996 19.9839 10.6968 18.617L19.793 9.52085C20.1835 9.13033 20.8167 9.13033 21.2072 9.52085C21.5977 9.91137 21.5977 10.5445 21.2072 10.9351L12.111 20.0313C9.96313 22.1791 6.48072 22.1791 4.33284 20.0313C2.18495 17.8834 2.18495 14.401 4.33284 12.2531L13.1717 3.41425Z" fill="black"/>
</svg>
