<svg width="24" height="24" viewBox="0 0 24 24" fill="none" xmlns="http://www.w3.org/2000/svg">
<path fill-rule="evenodd" clip-rule="evenodd" d="M12.9349 6.98742C13.1407 6.4749 13.723 6.22624 14.2355 6.43201C15.0144 6.74473 15.719 7.21738 16.3038 7.81944C16.8887 8.42149 17.3406 9.13954 17.6306 9.9272C17.8214 10.4455 17.5559 11.0203 17.0376 11.2111C16.5194 11.4019 15.9445 11.1364 15.7537 10.6181C15.5604 10.093 15.2591 9.61433 14.8692 9.21296C14.4794 8.81159 14.0096 8.49649 13.4904 8.28801C12.9778 8.08223 12.7292 7.49994 12.9349 6.98742Z" fill="black"/>
<path fill-rule="evenodd" clip-rule="evenodd" d="M13.3634 3.04783C13.5064 2.51436 14.0547 2.19778 14.5882 2.34072C16.2837 2.79504 17.8298 3.68768 19.071 4.92891C20.3123 6.17014 21.2049 7.71623 21.6592 9.41179C21.8022 9.94525 21.4856 10.4936 20.9521 10.6365C20.4187 10.7795 19.8703 10.4629 19.7274 9.92943C19.3639 8.57298 18.6498 7.33611 17.6568 6.34312C16.6638 5.35014 15.427 4.63603 14.0705 4.27257C13.5371 4.12963 13.2205 3.58129 13.3634 3.04783Z" fill="black"/>
<path fill-rule="evenodd" clip-rule="evenodd" d="M4.9684 5.21552C7.38659 4.40893 9.83024 5.92369 10.509 8.37614C10.9715 10.0473 10.5335 11.7996 9.46537 12.9995C9.68413 13.2828 9.92317 13.5552 10.1827 13.8149C10.4409 14.0733 10.7117 14.3115 10.9932 14.5295C12.1927 13.453 13.9503 13.01 15.6263 13.4745C18.0782 14.1542 19.5902 16.5997 18.7848 19.0178C18.2565 20.6044 17.2712 21.5684 15.9571 21.8857C14.7361 22.1805 13.4197 21.8671 12.2585 21.3844C9.91998 20.4123 7.6108 18.4974 6.5562 17.442C5.4767 16.3617 3.57009 14.0492 2.60677 11.715C2.1284 10.5559 1.82039 9.24432 2.1159 8.02892C2.43384 6.72133 3.3929 5.74099 4.9684 5.21552ZM8.58147 8.90962C8.16878 7.41853 6.79755 6.71373 5.60122 7.11276C4.54962 7.4635 4.18488 7.98488 4.05928 8.50144C3.91127 9.11019 4.03998 9.94518 4.45551 10.952C5.27998 12.9497 6.98986 15.0465 7.97094 16.0283C8.92827 16.9863 11.0228 18.7048 13.0263 19.5376C14.0361 19.9574 14.8752 20.0894 15.4877 19.9415C16.0071 19.8161 16.5332 19.4492 16.8873 18.3859C17.2867 17.1867 16.5807 15.8145 15.0921 15.4019C13.9842 15.0948 12.8451 15.4506 12.1672 16.1766C11.7295 16.6454 10.8951 16.9127 10.1851 16.4171C9.68559 16.0684 9.2112 15.6722 8.76793 15.2286C8.32396 14.7843 7.92757 14.3088 7.57884 13.8081C7.08641 13.1012 7.34917 12.27 7.81458 11.8312C8.53521 11.1519 8.88748 10.0153 8.58147 8.90962Z" fill="black"/>
</svg>
