<svg width="24" height="24" viewBox="0 0 24 24" fill="none" xmlns="http://www.w3.org/2000/svg">
<path fill-rule="evenodd" clip-rule="evenodd" d="M10 6.07174C8.97057 6.22032 7.98279 6.59715 7.11101 7.17966C5.95987 7.94883 5.06266 9.04208 4.53285 10.3212C4.00303 11.6002 3.86441 13.0077 4.13451 14.3656C4.4046 15.7234 5.07129 16.9707 6.05026 17.9497C7.02922 18.9287 8.2765 19.5953 9.63437 19.8654C10.9922 20.1355 12.3997 19.9969 13.6788 19.4671C14.9579 18.9373 16.0511 18.0401 16.8203 16.8889C17.4028 16.0172 17.7796 15.0294 17.9282 13.9999H12C10.8954 13.9999 10 13.1045 10 11.9999V6.07174ZM9.8779 4.07016C11.1074 3.91566 12 4.93436 12 5.99994V11.9999H18C19.0656 11.9999 20.0843 12.8925 19.9298 14.122C19.7561 15.5045 19.263 16.8331 18.4832 18.0001C17.4943 19.4801 16.0887 20.6337 14.4442 21.3149C12.7996 21.996 10.99 22.1743 9.24419 21.827C7.49836 21.4797 5.89472 20.6226 4.63604 19.3639C3.37737 18.1052 2.5202 16.5016 2.17294 14.7558C1.82567 13.0099 2.0039 11.2003 2.68509 9.55579C3.36628 7.91126 4.51983 6.50565 5.99987 5.51672C7.16686 4.73696 8.49549 4.24387 9.8779 4.07016Z" fill="black"/>
<path fill-rule="evenodd" clip-rule="evenodd" d="M13 3.99996C13 2.94108 13.8925 1.90216 15.139 2.08145C15.7978 2.17622 16.4438 2.35306 17.0615 2.60892C18.0321 3.01096 18.914 3.60024 19.6569 4.3431C20.3997 5.08597 20.989 5.96789 21.391 6.93849C21.6469 7.5562 21.8237 8.20213 21.9185 8.86098C22.0978 10.1074 21.0589 11 20 11L14.1 11C13.4925 11 13 10.5075 13 9.89996V3.99996ZM19.9161 8.99996C19.8411 8.55633 19.7163 8.12149 19.5433 7.70386C19.2417 6.9759 18.7998 6.31447 18.2426 5.75732C17.6855 5.20017 17.0241 4.75821 16.2961 4.45668C15.8785 4.28369 15.4436 4.15887 15 4.08388V8.99996L19.9161 8.99996Z" fill="black"/>
</svg>
