<svg width="24" height="24" viewBox="0 0 24 24" fill="none" xmlns="http://www.w3.org/2000/svg">
<path fill-rule="evenodd" clip-rule="evenodd" d="M12.2747 4.11855C12.0952 4.06725 11.9048 4.06725 11.7253 4.11855L6.72528 5.54713C6.29598 5.66978 6 6.06217 6 6.50865V11.8831C6 14.1438 7.09176 16.2653 8.93133 17.5792L10.5812 18.7577C11.0307 19.0788 11.1347 19.7033 10.8137 20.1527C10.4927 20.6021 9.86817 20.7062 9.41876 20.3852L7.76886 19.2067C5.40369 17.5173 4 14.7897 4 11.8831V6.50865C4 5.16921 4.88793 3.99205 6.17584 3.62408L11.1758 2.19551C11.7145 2.0416 12.2855 2.0416 12.8242 2.19551L17.8242 3.62408C19.1121 3.99205 20 5.16921 20 6.50865V12C20 12.5523 19.5523 13 19 13C18.4477 13 18 12.5523 18 12V6.50865C18 6.06217 17.704 5.66978 17.2747 5.54713L12.2747 4.11855Z" fill="black"/>
<path fill-rule="evenodd" clip-rule="evenodd" d="M16 16C14.8954 16 14 16.8954 14 18C14 19.1046 14.8954 20 16 20C17.1046 20 18 19.1046 18 18C18 16.8954 17.1046 16 16 16ZM12 18C12 15.7909 13.7909 14 16 14C18.2091 14 20 15.7909 20 18C20 20.2091 18.2091 22 16 22C13.7909 22 12 20.2091 12 18Z" fill="black"/>
</svg>
