<svg width="24" height="24" viewBox="0 0 24 24" fill="none" xmlns="http://www.w3.org/2000/svg">
<path fill-rule="evenodd" clip-rule="evenodd" d="M12.2747 4.11855C12.0952 4.06725 11.9048 4.06725 11.7253 4.11855L6.72528 5.54713C6.29598 5.66978 6 6.06217 6 6.50865V11.8831C6 14.1438 7.09176 16.2653 8.93133 17.5792L11.4188 19.356C11.7665 19.6043 12.2335 19.6043 12.5812 19.356L15.0687 17.5792C16.9082 16.2653 18 14.1438 18 11.8831V6.50865C18 6.06217 17.704 5.66978 17.2747 5.54713L12.2747 4.11855ZM11.1758 2.19551C11.7145 2.0416 12.2855 2.0416 12.8242 2.19551L17.8242 3.62408C19.1121 3.99205 20 5.16921 20 6.50865V11.8831C20 14.7897 18.5963 17.5173 16.2311 19.2067L13.7437 20.9834C12.7006 21.7285 11.2994 21.7285 10.2563 20.9834L7.76886 19.2067C5.40369 17.5173 4 14.7897 4 11.8831V6.50865C4 5.16921 4.88793 3.99205 6.17584 3.62408L11.1758 2.19551Z" fill="black"/>
<path fill-rule="evenodd" clip-rule="evenodd" d="M9.29289 8.29289C9.68342 7.90237 10.3166 7.90237 10.7071 8.29289L12 9.58579L13.2929 8.29289C13.6834 7.90237 14.3166 7.90237 14.7071 8.29289C15.0976 8.68342 15.0976 9.31658 14.7071 9.70711L13.4142 11L14.7071 12.2929C15.0976 12.6834 15.0976 13.3166 14.7071 13.7071C14.3166 14.0976 13.6834 14.0976 13.2929 13.7071L12 12.4142L10.7071 13.7071C10.3166 14.0976 9.68342 14.0976 9.29289 13.7071C8.90237 13.3166 8.90237 12.6834 9.29289 12.2929L10.5858 11L9.29289 9.70711C8.90237 9.31658 8.90237 8.68342 9.29289 8.29289Z" fill="black"/>
</svg>
