<svg width="24" height="24" viewBox="0 0 24 24" fill="none" xmlns="http://www.w3.org/2000/svg">
<path fill-rule="evenodd" clip-rule="evenodd" d="M4 5C4 4.44772 4.44772 4 5 4H19C19.5523 4 20 4.44772 20 5C20 5.55228 19.5523 6 19 6H5C4.44772 6 4 5.55228 4 5Z" fill="black"/>
<path fill-rule="evenodd" clip-rule="evenodd" d="M8.77778 3.33333C8.77778 2.59695 9.37473 2 10.1111 2L13.8889 2C14.6253 2 15.2222 2.59695 15.2222 3.33333C15.2222 3.70152 15.5207 4 15.8889 4H16V6H15.8889C14.6463 6 13.6023 5.15015 13.3062 4L10.6938 4C10.3977 5.15015 9.35367 6 8.11111 6H8V4L8.11111 4C8.4793 4 8.77778 3.70152 8.77778 3.33333Z" fill="black"/>
<path fill-rule="evenodd" clip-rule="evenodd" d="M5.91701 8.00351C6.46739 7.95765 6.95074 8.36663 6.9966 8.91701L7.76736 18.1661C7.85374 19.2027 8.72028 20.0001 9.76045 20.0001H10.5001C11.0523 20.0001 11.5001 20.4478 11.5001 21.0001C11.5001 21.5523 11.0523 22.0001 10.5001 22.0001H9.76045C7.6801 22.0001 5.94704 20.4054 5.77427 18.3322L5.00351 9.0831C4.95765 8.53272 5.36663 8.04937 5.91701 8.00351ZM18.0831 8.00351C18.6335 8.04937 19.0425 8.53272 18.9966 9.0831L18.7557 11.9735C18.7099 12.5238 18.2265 12.9328 17.6761 12.887C17.1258 12.8411 16.7168 12.3577 16.7626 11.8074L17.0035 8.91701C17.0494 8.36663 17.5327 7.95765 18.0831 8.00351Z" fill="black"/>
<path fill-rule="evenodd" clip-rule="evenodd" d="M16 16C14.8954 16 14 16.8954 14 18C14 19.1046 14.8954 20 16 20C17.1046 20 18 19.1046 18 18C18 16.8954 17.1046 16 16 16ZM12 18C12 15.7909 13.7909 14 16 14C18.2091 14 20 15.7909 20 18C20 20.2091 18.2091 22 16 22C13.7909 22 12 20.2091 12 18Z" fill="black"/>
</svg>
